<svg class="group" width="56" height="56" xmlns="http://www.w3.org/2000/svg">
    <g class="origin-center transition group-hover:rotate-180">
        <circle cx="372.05" cy="680.31" r="325.42" transform="matrix(.08297 0 0 .08297 -2.87 -28.45)" />
        <path
            d="M25.55 53.46c-3.1-.31-7.77-1.88-10.12-3.4a23.77 23.77 0 0 1-4.37-3.37 25.36 25.36 0 0 1-7.82-14.27 29.7 29.7 0 0 1 .01-8.6 25.94 25.94 0 0 1 11.2-17.08 25.65 25.65 0 0 1 26.07-1.2c1.76.94 4.02 2.57 4.92 3.54l.62.67-.7-.53c-3.27-2.43-7.04-4-11.28-4.73-2.35-.4-7.26-.26-9.42.27-6.07 1.48-10.7 4.45-14.26 9.12a23.64 23.64 0 0 0-4.47 10.2 31.93 31.93 0 0 0-.01 8.1c.6 3.44 1.96 6.81 3.83 9.57a30.14 30.14 0 0 0 5.85 5.94 26.5 26.5 0 0 0 10.04 4.24c2.22.42 6.51.43 8.88 0a28.3 28.3 0 0 0 6.45-2.02c.6-.3 1.1-.51 1.1-.47 0 .15-2.6 1.62-4.02 2.2-1.96.8-4.12 1.39-6.1 1.69-1.53.23-4.8.3-6.4.13z"
            fill="#ff1d48" />
        <path
            d="M25.68 50.94a22.92 22.92 0 0 1-17.22-14.3c-.68-1.81-.54-1.81.37-.01 3.85 7.64 11.75 12.6 20.09 12.6 10.8-.01 19.84-7.55 21.7-18.1.34-1.91.3-5.89-.08-7.82A22.41 22.41 0 0 0 38.45 7.42a29.18 29.18 0 0 0-6.25-2.05l-1.44-.26 1.15-.02c2.2-.03 6.12 1.02 8.75 2.34 3 1.51 6.72 4.8 8.49 7.5a24.96 24.96 0 0 1 3.57 8.46c.49 2.22.45 7.23-.07 9.46-2.24 9.55-9.4 16.43-18.83 18.08-1.96.34-6.33.35-8.14.01z"
            fill="#6366f1" />
    </g>
    <g stroke-width=".94">
        <path
            d="M26.27 29.49q-3.53-1.4-4.78-2.93-1.25-1.54-1.25-4.13 0-3.34 2.06-5.24t5.64-1.9q1.63 0 3.26.39 1.63.38 3.23 1.13v4.73q-1.5-1.1-3.05-1.68-1.55-.57-3.07-.57-1.7 0-2.6.7t-.9 2.03q0 1.01.65 1.69.67.65 2.75 1.46l2.01.79q2.85 1.08 4.2 2.87t1.34 4.51q0 3.71-2.12 5.55-2.1 1.83-6.38 1.83-1.75 0-3.52-.45-1.76-.42-3.4-1.28v-5q1.87 1.37 3.6 2.05 1.76.67 3.47.67 1.72 0 2.67-.8.95-.83.95-2.29 0-1.1-.63-1.92-.64-.83-1.84-1.31z"
            fill="#fff" />
    </g>
</svg>